<svg version="1" xmlns="http://www.w3.org/2000/svg" width="970.667" height="970.667" viewBox="0 0 728.000000 728.000000"><path d="M332.5 13.1C304.7 28.9 287.7 38.6 185 96.7c-43.7 24.8-94.6 54.1-113 65-65.1 38.8-70 41.8-70 42.4 0 .4 12.2 7.7 27 16.3L56 236l102.8-59.7c56.5-32.8 135.3-78.7 175.1-101.8 39.8-23.2 72.4-42.5 72.5-43C406.5 30.4 359 .1 357 .1c-.8 0-11.8 5.9-24.5 13zM460 90.9c-11.8 7-41.9 24.8-66.8 39.6-24.9 14.7-45.1 27.2-45 27.7.2.5 8 5.3 17.3 10.5 9.4 5.2 35.7 20 58.5 32.8 140.7 78.9 167.4 93.8 169 94.2 1.7.5 134-73.3 134-74.6 0-.4-22.4-13.7-49.7-29.6-27.4-15.9-82.6-47.9-122.6-71.2-40-23.3-72.9-42.3-73-42.2-.1 0-9.9 5.8-21.7 12.8zM222.9 231.1c-26.1 15.4-56.7 33.5-68.1 40.2C143.4 278 134 283.7 134 284c0 .3 19.9 11.6 44.3 25.2 24.3 13.5 78.2 43.7 119.7 66.9 41.5 23.2 76.3 42.4 77.2 42.7 1 .2 28.2-14.6 66-35.9 35.4-19.9 66.2-37.4 68.6-38.7 2.4-1.4 4-2.8 3.5-3.2-.4-.4-55-31.5-121.3-69s-120.8-68.4-121.1-68.6c-.3-.2-21.9 12.3-48 27.7z"/><path d="M47.5 354.5c-13.7 7.9-25.1 14.7-25.2 15.2-.2.4 6.8 4.9 15.4 10 25.2 14.5 100.1 58 223.6 129.7L376.2 576l28.6-16.7c15.8-9.1 62.9-36.5 104.7-60.8C551.3 474.2 613.6 438 648 418c34.4-20 66.1-38.4 70.4-40.9 4.4-2.6 8.1-5.1 8.2-5.6.3-1.1-47.6-31.5-49.5-31.5-.7 0-11.5 5.8-23.9 12.8-12.5 7.1-43.6 24.7-69.2 39.2-25.6 14.5-52.6 29.8-60 34-37.5 21.2-94.6 53.6-120 68-15.7 8.9-28.9 16.3-29.5 16.3-.5 0-14.7-7.9-31.5-17.5C197.4 409.2 75.7 340 74.3 340.1c-1 .1-13 6.5-26.8 14.4z"/><path d="M48.3 506.8c-14.5 8.1-26.1 15.1-26 15.7.4 1.1-.4.6 38.7 23.3 32.3 18.7 52.7 30.6 180.5 104.7 50.1 29 100.6 58.4 112.3 65.2 11.7 6.7 21.8 12.3 22.4 12.3.6 0 23.4-13 50.7-28.9 45.6-26.5 142.8-83 254.6-148 24.8-14.4 45.1-26.5 45.3-27 .1-.4-11-7.9-24.7-16.5l-25-15.7-19.3 10.9c-10.6 6-78.6 44.5-151 85.6-72.5 41-132 74.6-132.3 74.6-.5 0-113-64.2-244.7-139.6-30.1-17.3-54.9-31.4-55-31.4-.2 0-12.1 6.7-26.5 14.8z"/></svg>