<svg id="Primary" xmlns="http://www.w3.org/2000/svg" xmlns:xlink="http://www.w3.org/1999/xlink" viewBox="0 0 725 727.9"><defs><style>.cls-1{fill:#1059a9;}.cls-2{fill:url(#radial-gradient);}.cls-3{fill:url(#radial-gradient-2);}</style><radialGradient id="radial-gradient" cx="734.07" cy="295.63" r="215.66" gradientUnits="userSpaceOnUse"><stop offset="0" stop-color="#2b3990"/><stop offset="1" stop-color="#27aae1"/></radialGradient><radialGradient id="radial-gradient-2" cx="477.88" cy="400.3" r="199.35" xlink:href="#radial-gradient"/></defs><polygon class="cls-1" points="19.86 369.79 72.68 339.91 372.43 511.36 675.12 339.91 725 371.37 374.17 575.32 19.86 369.79"/><polygon class="cls-1" points="19.86 522.37 72.68 492.48 372.43 663.93 675.12 492.48 725 523.94 374.17 727.9 19.86 522.37"/><polygon class="cls-2" points="345.81 158.05 592 296.07 725 221.02 480.15 78.69 345.81 158.05"/><polygon class="cls-3" points="268.57 203.68 132.58 284.01 374.17 419.01 511.47 341.52 268.57 203.68"/><polygon class="cls-1" points="480.15 78.69 592 296.07 345.81 158.05 480.15 78.69"/><polygon class="cls-1" points="132.58 284.01 268.57 203.68 374.17 419.01 132.58 284.01"/><polygon class="cls-1" points="354.96 0 104.2 142.03 0 204.09 54 235.42 404.83 31.46 354.96 0"/></svg>