<svg id="Primary" xmlns="http://www.w3.org/2000/svg" xmlns:xlink="http://www.w3.org/1999/xlink" viewBox="0 0 725 192.61"><defs><style>.cls-1{fill:#1059a9;}.cls-2{fill:url(#radial-gradient);}.cls-3{fill:url(#radial-gradient-2);}.cls-4{font-size:80.18px;fill:#231f20;font-family:Nexa-Heavy, Nexa;font-weight:800;}.cls-5,.cls-6,.cls-7{font-family:Nexa-Light, Nexa;font-weight:300;}.cls-6{letter-spacing:-0.07em;}.cls-7{letter-spacing:-0.03em;}</style><radialGradient id="radial-gradient" cx="194.25" cy="78.23" r="57.07" gradientUnits="userSpaceOnUse"><stop offset="0" stop-color="#2b3990"/><stop offset="1" stop-color="#27aae1"/></radialGradient><radialGradient id="radial-gradient-2" cx="126.46" cy="105.92" r="52.75" xlink:href="#radial-gradient"/></defs><polygon class="cls-1" points="5.26 97.85 19.24 89.94 98.55 135.31 178.65 89.94 191.85 98.27 99.01 152.24 5.26 97.85"/><polygon class="cls-1" points="5.26 138.23 19.24 130.32 98.55 175.69 178.65 130.32 191.85 138.64 99.01 192.61 5.26 138.23"/><polygon class="cls-2" points="91.51 41.82 156.66 78.35 191.85 58.48 127.06 20.82 91.51 41.82"/><polygon class="cls-3" points="71.07 53.9 35.08 75.15 99.01 110.88 135.35 90.37 71.07 53.9"/><polygon class="cls-1" points="127.06 20.82 156.66 78.35 91.51 41.82 127.06 20.82"/><polygon class="cls-1" points="35.08 75.15 71.07 53.9 99.01 110.88 35.08 75.15"/><polygon class="cls-1" points="93.93 0 27.58 37.58 0 54.01 14.29 62.3 107.13 8.32 93.93 0"/><text class="cls-4" transform="translate(228.46 124.25)">TRUE<tspan class="cls-5" x="222.09" y="0">S</tspan><tspan class="cls-6" x="274.77" y="0">T</tspan><tspan class="cls-5" x="316.62" y="0">AM</tspan><tspan class="cls-7" x="444.91" y="0">P</tspan></text></svg>